<svg width="114" height="55" viewBox="0 0 114 55" fill="none" xmlns="http://www.w3.org/2000/svg">
<path d="M53.884 2.608C54.108 2.552 54.34 2.52 54.58 2.512C54.82 2.496 55.052 2.488 55.276 2.488C55.492 2.488 55.74 2.504 56.02 2.536C56.3 2.568 56.544 2.62 56.752 2.692L56.896 2.884L52.264 19.012C51.88 19.052 51.464 19.08 51.016 19.096C50.576 19.12 50.148 19.132 49.732 19.132C49.116 19.132 48.636 19.028 48.292 18.82C47.956 18.612 47.704 18.216 47.536 17.632L43.348 2.896C43.636 2.76 43.944 2.648 44.272 2.56C44.608 2.464 44.952 2.416 45.304 2.416C45.768 2.416 46.136 2.54 46.408 2.788C46.68 3.036 46.892 3.44 47.044 4L49.192 11.716C49.376 12.364 49.552 13.068 49.72 13.828C49.888 14.588 50.036 15.3 50.164 15.964C50.204 16.148 50.284 16.24 50.404 16.24L53.884 2.608Z" fill="white"/>
<path d="M62.4117 19C62.1957 19.04 61.9477 19.068 61.6677 19.084C61.3957 19.108 61.1237 19.12 60.8517 19.12C60.5797 19.12 60.3037 19.108 60.0237 19.084C59.7517 19.068 59.5037 19.04 59.2797 19V10.648C59.2797 10.232 59.1997 9.908 59.0397 9.676C58.8797 9.444 58.5917 9.328 58.1757 9.328H57.8757C57.7797 8.984 57.7317 8.624 57.7317 8.248C57.7317 8.072 57.7437 7.888 57.7677 7.696C57.7917 7.496 57.8277 7.3 57.8757 7.108C58.2037 7.068 58.5317 7.04 58.8597 7.024C59.1957 7.008 59.4757 7 59.6997 7H60.1197C60.8237 7 61.3797 7.228 61.7877 7.684C62.2037 8.132 62.4117 8.74 62.4117 9.508V19ZM61.9077 0.879997C62.3157 1.008 62.7197 1.256 63.1197 1.624C63.5197 1.984 63.7877 2.372 63.9237 2.788L59.6397 6.052C59.3757 5.98 59.1157 5.832 58.8597 5.608C58.6117 5.376 58.4317 5.116 58.3197 4.828L61.9077 0.879997Z" fill="white"/>
<path d="M75.5674 16.216C75.5674 16.664 75.6034 17.084 75.6754 17.476C75.7554 17.868 75.8874 18.212 76.0714 18.508C75.8394 18.7 75.5514 18.86 75.2074 18.988C74.8634 19.116 74.4954 19.18 74.1034 19.18C73.4794 19.18 73.0434 19.012 72.7954 18.676C72.5554 18.34 72.4354 17.852 72.4354 17.212V11.62C72.4354 10.956 72.3474 10.468 72.1714 10.156C71.9954 9.844 71.6634 9.688 71.1754 9.688C70.8314 9.688 70.4434 9.784 70.0114 9.976C69.5794 10.16 69.1794 10.444 68.8114 10.828V19C68.5874 19.04 68.3354 19.068 68.0554 19.084C67.7834 19.108 67.5114 19.12 67.2394 19.12C66.9754 19.12 66.7034 19.108 66.4234 19.084C66.1434 19.068 65.8914 19.04 65.6674 19V7.108L65.8234 6.952H67.0114C67.4994 6.952 67.8834 7.08 68.1634 7.336C68.4434 7.584 68.6314 7.932 68.7274 8.38C69.2234 7.948 69.7674 7.588 70.3594 7.3C70.9594 7.012 71.6034 6.868 72.2914 6.868C73.4034 6.868 74.2274 7.26 74.7634 8.044C75.2994 8.82 75.5674 9.796 75.5674 10.972V16.216Z" fill="white"/>
<path d="M88.7644 13.036C88.7644 14.292 88.5604 15.392 88.1524 16.336C87.7524 17.28 87.1524 18.016 86.3524 18.544C85.5524 19.072 84.5684 19.336 83.4004 19.336C82.2164 19.336 81.2244 19.072 80.4244 18.544C79.6324 18.008 79.0364 17.268 78.6364 16.324C78.2364 15.38 78.0364 14.284 78.0364 13.036C78.0364 11.788 78.2364 10.692 78.6364 9.748C79.0444 8.804 79.6444 8.068 80.4364 7.54C81.2364 7.012 82.2244 6.748 83.4004 6.748C84.5764 6.748 85.5644 7.012 86.3644 7.54C87.1644 8.068 87.7644 8.808 88.1644 9.76C88.5644 10.704 88.7644 11.796 88.7644 13.036ZM81.2524 13.036C81.2524 13.74 81.3084 14.392 81.4204 14.992C81.5404 15.584 81.7524 16.064 82.0564 16.432C82.3684 16.792 82.8164 16.972 83.4004 16.972C83.9844 16.972 84.4284 16.792 84.7324 16.432C85.0444 16.064 85.2564 15.584 85.3684 14.992C85.4884 14.392 85.5484 13.74 85.5484 13.036C85.5484 12.34 85.4884 11.696 85.3684 11.104C85.2564 10.504 85.0444 10.02 84.7324 9.652C84.4284 9.284 83.9844 9.1 83.4004 9.1C82.8164 9.1 82.3684 9.284 82.0564 9.652C81.7524 10.02 81.5404 10.504 81.4204 11.104C81.3084 11.696 81.2524 12.34 81.2524 13.036Z" fill="white"/>
<path d="M56.116 38.02C56.116 39.236 55.872 40.256 55.384 41.08C54.896 41.896 54.224 42.512 53.368 42.928C52.512 43.344 51.532 43.552 50.428 43.552H48.22V49C47.956 49.048 47.676 49.08 47.38 49.096C47.092 49.112 46.832 49.12 46.6 49.12C46.392 49.12 46.132 49.112 45.82 49.096C45.516 49.08 45.24 49.048 44.992 49V32.74L45.16 32.572C46.128 32.556 47.028 32.54 47.86 32.524C48.7 32.5 49.556 32.488 50.428 32.488C51.524 32.488 52.5 32.692 53.356 33.1C54.212 33.5 54.884 34.108 55.372 34.924C55.868 35.74 56.116 36.772 56.116 38.02ZM48.22 34.972V41.092C48.62 41.084 49.008 41.076 49.384 41.068C49.768 41.06 50.044 41.056 50.212 41.056C50.924 41.056 51.464 40.892 51.832 40.564C52.208 40.236 52.464 39.84 52.6 39.376C52.736 38.904 52.804 38.452 52.804 38.02C52.804 37.588 52.736 37.14 52.6 36.676C52.464 36.204 52.208 35.808 51.832 35.488C51.464 35.16 50.924 34.996 50.212 34.996C49.924 34.996 49.608 34.996 49.264 34.996C48.928 34.996 48.58 34.988 48.22 34.972Z" fill="white"/>
<path d="M57.4949 38.536C57.5589 38.256 57.6909 37.952 57.8909 37.624C58.0989 37.296 58.3109 37.056 58.5269 36.904C59.1989 36.992 59.7509 37.224 60.1829 37.6C60.6229 37.968 60.9549 38.452 61.1789 39.052C61.4509 38.436 61.8309 37.928 62.3189 37.528C62.8069 37.12 63.4469 36.916 64.2389 36.916C64.5269 36.916 64.7789 36.932 64.9949 36.964C65.2109 36.996 65.4389 37.036 65.6789 37.084C65.6789 37.476 65.6149 37.956 65.4869 38.524C65.3589 39.092 65.1629 39.596 64.8989 40.036C64.7149 39.972 64.5309 39.932 64.3469 39.916C64.1629 39.892 63.9789 39.872 63.7949 39.856C63.2589 39.856 62.8109 39.996 62.4509 40.276C62.0909 40.548 61.7829 40.904 61.5269 41.344V49C61.3109 49.04 61.0629 49.068 60.7829 49.084C60.5109 49.108 60.2389 49.12 59.9669 49.12C59.6949 49.12 59.4189 49.108 59.1389 49.084C58.8669 49.068 58.6189 49.04 58.3949 49V41.02C58.3949 40.348 58.2949 39.808 58.0949 39.4C57.8949 38.984 57.6949 38.696 57.4949 38.536ZM60.1229 35.584L57.8549 32.584C57.9909 32.256 58.2029 31.976 58.4909 31.744C58.7869 31.504 59.0469 31.344 59.2709 31.264L61.4789 33.4L63.6989 31.264C63.9229 31.344 64.1789 31.504 64.4669 31.744C64.7629 31.976 64.9789 32.256 65.1149 32.584L62.8469 35.584C62.4309 35.696 61.9749 35.752 61.4789 35.752C60.9829 35.752 60.5309 35.696 60.1229 35.584Z" fill="white"/>
<path d="M71.4117 49C71.1957 49.04 70.9477 49.068 70.6677 49.084C70.3957 49.108 70.1237 49.12 69.8517 49.12C69.5797 49.12 69.3037 49.108 69.0237 49.084C68.7517 49.068 68.5037 49.04 68.2797 49V40.648C68.2797 40.232 68.1997 39.908 68.0397 39.676C67.8797 39.444 67.5917 39.328 67.1757 39.328H66.8757C66.7797 38.984 66.7317 38.624 66.7317 38.248C66.7317 38.072 66.7437 37.888 66.7677 37.696C66.7917 37.496 66.8277 37.3 66.8757 37.108C67.2037 37.068 67.5317 37.04 67.8597 37.024C68.1957 37.008 68.4757 37 68.6997 37H69.1197C69.8237 37 70.3797 37.228 70.7877 37.684C71.2037 38.132 71.4117 38.74 71.4117 39.508V49ZM67.5357 33.796C67.5357 33.348 67.6197 32.936 67.7877 32.56C68.2037 32.336 68.7237 32.224 69.3477 32.224C69.6197 32.224 69.9077 32.256 70.2117 32.32C70.5157 32.384 70.7477 32.464 70.9077 32.56C70.9877 32.736 71.0477 32.94 71.0877 33.172C71.1357 33.396 71.1597 33.604 71.1597 33.796C71.1597 34.244 71.0757 34.656 70.9077 35.032C70.7557 35.128 70.5237 35.208 70.2117 35.272C69.9077 35.336 69.6197 35.368 69.3477 35.368C69.0677 35.368 68.7757 35.34 68.4717 35.284C68.1757 35.22 67.9477 35.136 67.7877 35.032C67.6197 34.656 67.5357 34.244 67.5357 33.796Z" fill="white"/>
<path d="M77.7394 49C77.2994 49.08 76.7834 49.12 76.1914 49.12C75.6234 49.12 75.1154 49.08 74.6674 49V31.504L74.8234 31.348H76.0354C76.6674 31.348 77.1074 31.496 77.3554 31.792C77.6114 32.08 77.7394 32.576 77.7394 33.28V41.464L78.3154 41.44C78.5874 41.44 78.7994 41.312 78.9514 41.056L80.6074 38.212C80.8234 37.812 81.0714 37.512 81.3514 37.312C81.6394 37.104 82.0154 37 82.4794 37C82.8074 37 83.1034 37.004 83.3674 37.012C83.6314 37.012 83.9074 37.02 84.1954 37.036L84.3394 37.228L82.1314 41.08C81.8594 41.568 81.5194 41.956 81.1114 42.244C82.0874 42.564 82.7834 43.272 83.1994 44.368L83.8954 46.24C84.0794 46.8 84.2554 47.228 84.4234 47.524C84.5994 47.812 84.8074 48.04 85.0474 48.208C84.8074 48.48 84.4954 48.712 84.1114 48.904C83.7354 49.088 83.3434 49.18 82.9354 49.18C82.4474 49.18 82.0794 49.06 81.8314 48.82C81.5914 48.572 81.3794 48.18 81.1954 47.644L80.3554 45.436C80.1474 44.868 79.9194 44.492 79.6714 44.308C79.4314 44.116 79.0914 44.02 78.6514 44.02C78.4834 44.02 78.3234 44.024 78.1714 44.032C78.0274 44.04 77.8834 44.052 77.7394 44.068V49Z" fill="white"/>
<path d="M86.2761 38.536C86.3401 38.256 86.4721 37.952 86.6721 37.624C86.8801 37.296 87.0921 37.056 87.3081 36.904C87.9801 36.992 88.5321 37.224 88.9641 37.6C89.4041 37.968 89.7361 38.452 89.9601 39.052C90.2321 38.436 90.6121 37.928 91.1001 37.528C91.5881 37.12 92.2281 36.916 93.0201 36.916C93.3081 36.916 93.5601 36.932 93.7761 36.964C93.9921 36.996 94.2201 37.036 94.4601 37.084C94.4601 37.476 94.3961 37.956 94.2681 38.524C94.1401 39.092 93.9441 39.596 93.6801 40.036C93.4961 39.972 93.3121 39.932 93.1281 39.916C92.9441 39.892 92.7601 39.872 92.5761 39.856C92.0401 39.856 91.5921 39.996 91.2321 40.276C90.8721 40.548 90.5641 40.904 90.3081 41.344V49C90.0921 49.04 89.8441 49.068 89.5641 49.084C89.2921 49.108 89.0201 49.12 88.7481 49.12C88.4761 49.12 88.2001 49.108 87.9201 49.084C87.6481 49.068 87.4001 49.04 87.1761 49V41.02C87.1761 40.348 87.0761 39.808 86.8761 39.4C86.6761 38.984 86.4761 38.696 86.2761 38.536Z" fill="white"/>
<path d="M103.57 48.652C103.25 49.804 102.874 50.796 102.442 51.628C102.018 52.468 101.45 53.112 100.738 53.56C100.026 54.016 99.0942 54.244 97.9422 54.244C97.5102 54.244 97.0382 54.196 96.5262 54.1C96.0142 54.012 95.6142 53.916 95.3262 53.812C95.2862 53.452 95.3302 53.048 95.4582 52.6C95.5942 52.152 95.7662 51.808 95.9742 51.568C96.1982 51.64 96.4942 51.712 96.8622 51.784C97.2302 51.864 97.5902 51.904 97.9422 51.904C98.6462 51.904 99.1982 51.684 99.5982 51.244C100.006 50.812 100.326 50.216 100.558 49.456L100.642 49.144C100.066 49.136 99.5942 49.032 99.2262 48.832C98.8662 48.632 98.6102 48.268 98.4582 47.74L95.4942 37.324C95.8222 37.18 96.1582 37.072 96.5022 37C96.8542 36.92 97.1582 36.88 97.4142 36.88C97.7902 36.88 98.1062 36.976 98.3622 37.168C98.6182 37.36 98.8142 37.72 98.9502 38.248L100.318 43.3C100.454 43.78 100.586 44.352 100.714 45.016C100.842 45.672 100.946 46.212 101.026 46.636C101.05 46.748 101.122 46.804 101.242 46.804L103.594 37.096C103.77 37.048 103.974 37.012 104.206 36.988C104.446 36.964 104.666 36.952 104.866 36.952C105.138 36.952 105.414 36.968 105.694 37C105.974 37.032 106.25 37.092 106.522 37.18L106.63 37.384L103.57 48.652Z" fill="white"/>
<path d="M113.288 46.684C113.456 47.156 113.54 47.664 113.54 48.208C113.54 48.328 113.536 48.448 113.528 48.568C113.52 48.688 113.5 48.8 113.468 48.904C113.148 48.96 112.78 49.008 112.364 49.048C111.948 49.088 111.54 49.108 111.14 49.108C110.204 49.108 109.52 48.872 109.088 48.4C108.664 47.92 108.452 47.184 108.452 46.192V31.504L108.62 31.348H109.82C110.46 31.348 110.904 31.496 111.152 31.792C111.4 32.08 111.524 32.576 111.524 33.28V45.592C111.524 46.32 111.856 46.684 112.52 46.684H113.288Z" fill="white"/>
<path d="M0 20.1406C0 26.5089 4.4614 31.9023 10.5273 33.2295V44.6233L3.40007 48.1868C3.00305 48.3853 2.79483 48.8309 2.89651 49.2627C2.99857 49.6949 3.38437 49.9999 3.82812 49.9999H22.9687C23.4125 49.9999 23.7983 49.6949 23.8999 49.2627C24.002 48.8309 23.7938 48.3857 23.3964 48.1868L16.2695 44.6233V33.2295C22.5044 31.8649 26.9097 26.2618 26.7957 19.9309C26.7557 17.4744 26.3729 17.1585 22.9444 1.74394C22.8453 1.30879 22.458 1 22.0117 1H17.3222C16.7936 1 16.3652 1.42842 16.3652 1.95703C16.3652 2.48564 16.7936 2.91406 17.3222 2.91406H21.2487C21.2487 2.91406 24.694 18.0467 24.7329 18.2863C22.7205 17.2972 20.3055 16.3745 18.212 16.3128C16.0015 16.2463 13.9801 17.3574 12.0268 18.4306C10.1755 19.4479 8.42747 20.4086 6.85248 20.1529C5.55152 19.9421 3.96457 18.9914 2.24229 17.3966L5.54853 2.91406H9.666C10.1946 2.91406 10.623 2.48564 10.623 1.95703C10.623 1.42842 10.1946 1 9.666 1H4.78515C4.33878 1 3.95148 1.30879 3.85204 1.74394C0.0332717 18.4837 0 17.969 0 20.1406H0ZM18.9148 48.0858H7.88203L11.9124 46.0709C12.2365 45.9086 12.4414 45.577 12.4414 45.2148V33.5039C12.7595 33.5263 13.0792 33.539 13.3984 33.539C13.7177 33.539 14.0373 33.5263 14.3554 33.5039V45.2148C14.3554 45.5774 14.5603 45.9086 14.8844 46.0709L18.9148 48.0858ZM12.9487 20.1081C14.6773 19.1585 16.4643 18.1761 18.1555 18.2262C19.8385 18.2755 22.2106 19.0845 24.876 20.5118C24.6783 26.5254 19.6849 31.6758 13.3027 31.6238C6.77098 31.5711 1.65985 26.0353 1.9249 19.6595C3.57877 21.0128 5.12796 21.8124 6.54593 22.0423C8.78822 22.4064 10.9385 21.2128 12.9487 20.1081Z" fill="white"/>
<path d="M14.4512 1.95703C14.4512 2.48564 14.0228 2.91406 13.4941 2.91406C12.9655 2.91406 12.5371 2.48564 12.5371 1.95703C12.5371 1.42842 12.9655 1 13.4941 1C14.0228 1 14.4512 1.42842 14.4512 1.95703Z" fill="white"/>
</svg>
