<svg width="6" height="9" viewBox="0 0 6 9" fill="none" xmlns="http://www.w3.org/2000/svg">
<path d="M0.763201 1.70612C0.645417 1.54892 0.588234 1.35446 0.60215 1.15845C0.616066 0.962445 0.700147 0.77804 0.838957 0.639092C0.977766 0.500144 1.16199 0.415979 1.3578 0.402049C1.55361 0.388119 1.74788 0.445359 1.90492 0.56326L5.16698 3.82857C5.3164 3.98116 5.4001 4.18632 5.4001 4.39999C5.4001 4.61367 5.3164 4.81883 5.16698 4.97142L1.90492 8.23673C1.74788 8.35463 1.55361 8.41187 1.3578 8.39794C1.16199 8.38401 0.977766 8.29984 0.838956 8.1609C0.700146 8.02195 0.616066 7.83754 0.60215 7.64153C0.588234 7.44553 0.645417 7.25107 0.763201 7.09387L3.44624 4.39999L0.755046 1.70612H0.763201Z" fill="white"/>
</svg>
