<svg width="34" height="49" viewBox="0 0 34 49" fill="none" xmlns="http://www.w3.org/2000/svg">
<path d="M10.5853 22.888C10.3367 22.888 10.0968 22.7755 9.93726 22.5743C9.22632 21.6773 8.94778 20.7927 8.85645 20.0886C5.25703 21.2089 2.80626 19.0275 2.69333 18.9237C2.66036 18.8941 2.62928 18.8619 2.60237 18.8263C1.34004 17.2346 2.64254 14.8498 3.51303 13.589C0.370265 11.6991 0.0193426 8.57413 0.00456293 8.43126C-0.0159013 8.23117 0.0379119 8.03032 0.155012 7.86774C0.238764 7.74988 2.09683 5.21271 5.76181 5.13275C5.63259 3.60703 5.68867 0.889849 7.57289 0.13457C7.61496 0.118653 7.65778 0.105011 7.70098 0.0955366C7.85219 0.0621876 11.0651 -0.60934 13.6288 2.14688C14.0574 1.58184 14.7388 0.952378 15.8021 0.527557C16.1106 0.402878 16.4687 0.478292 16.7022 0.718556C16.8109 0.830351 19.3519 3.48917 19.1689 7.00294C19.0639 9.01828 18.096 10.8729 16.2887 12.5218C17.0421 14.8616 16.9584 16.9515 16.0405 18.7388C14.4523 21.8307 10.9525 22.8179 10.804 22.8585C10.7316 22.8782 10.6581 22.888 10.5853 22.888ZM9.71329 18.0255C9.90202 18.0255 10.0885 18.0903 10.2408 18.215C10.4924 18.4242 10.5982 18.7619 10.5095 19.0768C10.5004 19.1098 10.2882 19.9962 10.9085 21.0701C11.8211 20.7033 13.6561 19.7722 14.575 17.9732C15.3371 16.4794 15.3292 14.6565 14.55 12.5533C14.428 12.2251 14.5265 11.856 14.7956 11.6313C16.5089 10.1995 17.4245 8.6181 17.517 6.93018C17.6288 4.87581 16.5002 3.11286 15.8897 2.31893C14.8236 2.94271 14.5694 3.81471 14.5576 3.85677C14.4708 4.16866 14.2082 4.40551 13.8899 4.45667C13.5723 4.50708 13.2494 4.3733 13.0702 4.10461C11.2276 1.34158 8.60898 1.62087 8.12883 1.69818C7.2826 2.1374 7.25987 4.4112 7.51908 5.85051C7.56531 6.10555 7.48876 6.3678 7.31216 6.55804C7.13632 6.7479 6.87635 6.8415 6.62282 6.82028C3.89692 6.54553 2.25714 7.99091 1.70877 8.58361C1.88916 9.37451 2.58722 11.4312 5.09862 12.5533C5.3351 12.6594 5.50829 12.8708 5.56702 13.1236C5.62501 13.3768 5.5602 13.642 5.39384 13.8406C4.45438 14.9605 3.34287 16.9462 3.86054 17.747C4.22814 18.0449 6.36702 19.5986 9.34494 18.1131C9.46128 18.0536 9.58747 18.0255 9.71329 18.0255Z" fill="#192E3A"/>
<path d="M10.6232 33.8601C7.79039 33.8601 5.4859 31.556 5.4859 28.7232C5.4859 25.8904 7.79039 23.5859 10.6232 23.5859C13.4559 23.5859 15.76 25.8904 15.76 28.7232C15.76 31.556 13.4555 33.8601 10.6232 33.8601ZM10.6232 25.2401C8.70218 25.2401 7.13971 26.8026 7.13971 28.7236C7.13971 30.6442 8.70218 32.207 10.6232 32.207C12.5438 32.207 14.1066 30.6442 14.1066 28.7236C14.1066 26.8026 12.5438 25.2401 10.6232 25.2401Z" fill="#192E3A"/>
<path d="M19.6353 33.8601C16.8029 33.8601 14.4976 31.556 14.4976 28.7232C14.4976 25.8904 16.8021 23.5859 19.6353 23.5859C22.4676 23.5859 24.7721 25.8904 24.7721 28.7232C24.7721 31.556 22.4673 33.8601 19.6353 33.8601ZM19.6353 25.2401C17.7139 25.2401 16.1518 26.8026 16.1518 28.7236C16.1518 30.6442 17.7139 32.207 19.6353 32.207C21.5562 32.207 23.1183 30.6442 23.1183 28.7236C23.1183 26.8026 21.5562 25.2401 19.6353 25.2401Z" fill="#192E3A"/>
<path d="M15.3251 41.3044C12.4923 41.3044 10.1878 38.9999 10.1878 36.1675C10.1878 33.3351 12.4923 31.0303 15.3251 31.0303C18.1575 31.0303 20.462 33.3351 20.462 36.1675C20.462 38.9999 18.1575 41.3044 15.3251 41.3044ZM15.3251 32.6845C13.4041 32.6845 11.8412 34.2466 11.8412 36.1679C11.8412 38.0889 13.4041 39.651 15.3251 39.651C17.2457 39.651 18.8085 38.0889 18.8085 36.1679C18.8085 34.2466 17.2457 32.6845 15.3251 32.6845Z" fill="#192E3A"/>
<path d="M24.3368 41.3044C21.504 41.3044 19.1995 38.9999 19.1995 36.1675C19.1995 33.3351 21.504 31.0303 24.3368 31.0303C27.1699 31.0303 29.4744 33.3351 29.4744 36.1675C29.4744 38.9999 27.1699 41.3044 24.3368 41.3044ZM24.3368 32.6845C22.4158 32.6845 20.8537 34.2466 20.8537 36.1679C20.8537 38.0889 22.4158 39.651 24.3368 39.651C26.2578 39.651 27.8206 38.0889 27.8206 36.1679C27.8206 34.2466 26.2578 32.6845 24.3368 32.6845Z" fill="#192E3A"/>
<path d="M20.0266 48.7501C17.1942 48.7501 14.8897 46.4456 14.8897 43.6128C14.8897 40.7793 17.1942 38.4756 20.0266 38.4756C22.8594 38.4756 25.1639 40.7793 25.1639 43.6128C25.1639 46.4456 22.8594 48.7501 20.0266 48.7501ZM20.0266 40.129C18.106 40.129 16.5431 41.6922 16.5431 43.6128C16.5431 45.5338 18.106 47.0963 20.0266 47.0963C21.9476 47.0963 23.5104 45.5338 23.5104 43.6128C23.5104 41.6922 21.9476 40.129 20.0266 40.129Z" fill="#192E3A"/>
<path d="M28.6476 33.8601C25.814 33.8601 23.5103 31.556 23.5103 28.7232C23.5103 25.8904 25.814 23.5859 28.6476 23.5859C31.48 23.5859 33.7848 25.8904 33.7848 28.7232C33.7848 31.556 31.48 33.8601 28.6476 33.8601ZM28.6476 25.2401C26.727 25.2401 25.1637 26.8026 25.1637 28.7236C25.1637 30.6442 26.727 32.207 28.6476 32.207C30.5686 32.207 32.131 30.6442 32.131 28.7236C32.131 26.8026 30.5686 25.2401 28.6476 25.2401Z" fill="#192E3A"/>
<path d="M19.6342 25.2384C19.212 25.2384 18.852 24.9182 18.8114 24.49C18.7993 24.3569 17.7287 11.1432 32.0567 9.09636C32.5095 9.03156 32.9283 9.34572 32.9927 9.7982C33.0567 10.2503 32.7433 10.6691 32.2909 10.7339C19.5421 12.5544 20.4148 23.8559 20.4584 24.3369C20.4997 24.7912 20.1647 25.1937 19.7111 25.2358C19.6849 25.238 19.6595 25.2384 19.6342 25.2384Z" fill="#192E3A"/>
<path d="M19.6354 24.4079C19.1783 24.4079 18.8085 24.0381 18.8085 23.581V20.2787C18.8085 15.4515 14.8816 11.525 10.0547 11.525H9.05615C8.59912 11.525 8.22925 11.1551 8.22925 10.6981C8.22925 10.2411 8.59912 9.87158 9.05615 9.87158H10.0547C15.7934 9.87158 20.4619 14.5404 20.4619 20.2787V23.581C20.4619 24.0381 20.0924 24.4079 19.6354 24.4079Z" fill="#192E3A"/>
<path d="M25.5673 22.1562C25.1868 22.1562 24.8018 22.06 24.4493 21.8584C23.3697 21.2403 22.9937 19.8582 23.6118 18.7781L24.2182 17.7189C23.2408 17.4908 22.1964 17.9175 21.6764 18.8281L20.6373 20.6423C20.4088 21.0383 19.9052 21.1755 19.5084 20.9492C19.112 20.7211 18.9748 20.2167 19.2014 19.8203L20.2409 18.0058C21.2179 16.3001 23.2711 15.5906 25.061 16.2474L26.4537 13.8133C26.6799 13.418 27.1839 13.279 27.5826 13.5063C27.979 13.7333 28.1162 14.2385 27.8892 14.6349L26.5234 17.0205L27.0475 17.3199C28.1272 17.9383 28.5024 19.3197 27.8843 20.3997L27.5299 21.0201C27.1138 21.7477 26.3506 22.1562 25.5673 22.1562ZM25.7018 18.4549L25.0473 19.5997C24.9662 19.7396 24.9465 19.9018 24.9886 20.0579C25.0303 20.2136 25.1311 20.3425 25.2709 20.4225C25.5605 20.5892 25.9292 20.4888 26.094 20.1992L26.4491 19.5789C26.6147 19.2901 26.5143 18.9199 26.2252 18.7554L25.7018 18.4549Z" fill="#192E3A"/>
</svg>
