<svg width="34" height="49" viewBox="0 0 34 49" fill="none" xmlns="http://www.w3.org/2000/svg">
<path d="M10.5852 22.888C10.3366 22.888 10.0967 22.7755 9.9372 22.5743C9.22626 21.6773 8.94772 20.7927 8.85639 20.0886C5.25697 21.2089 2.8062 19.0275 2.69327 18.9237C2.66029 18.8941 2.62922 18.8619 2.60231 18.8263C1.33998 17.2346 2.64248 14.8498 3.51297 13.589C0.370204 11.6991 0.0192816 8.57414 0.0045019 8.43127C-0.0159623 8.23117 0.0378509 8.03032 0.154951 7.86774C0.238703 7.74988 2.09677 5.21271 5.76175 5.13275C5.63252 3.60703 5.68861 0.889849 7.57283 0.13457C7.6149 0.118653 7.65772 0.105011 7.70092 0.0955366C7.85213 0.0621876 11.065 -0.60934 13.6287 2.14688C14.0573 1.58184 14.7387 0.952378 15.8021 0.527557C16.1106 0.402878 16.4687 0.478292 16.7021 0.718556C16.8109 0.830351 19.3518 3.48917 19.1688 7.00294C19.0638 9.01828 18.096 10.8729 16.2887 12.5218C17.0421 14.8616 16.9583 16.9516 16.0404 18.7388C14.4522 21.8307 10.9524 22.8179 10.8039 22.8585C10.7315 22.8782 10.658 22.888 10.5852 22.888ZM9.71323 18.0255C9.90195 18.0255 10.0884 18.0903 10.2408 18.215C10.4924 18.4242 10.5981 18.7619 10.5094 19.0768C10.5003 19.1098 10.2881 19.9962 10.9085 21.0701C11.821 20.7033 13.656 19.7722 14.575 17.9732C15.3371 16.4794 15.3291 14.6565 14.55 12.5533C14.4279 12.2251 14.5265 11.856 14.7955 11.6313C16.5088 10.1995 17.4244 8.6181 17.5169 6.93018C17.6287 4.87581 16.5001 3.11286 15.8896 2.31893C14.8236 2.94271 14.5693 3.81471 14.5576 3.85677C14.4708 4.16866 14.2081 4.40551 13.8898 4.45667C13.5722 4.50708 13.2494 4.3733 13.0701 4.10461C11.2276 1.34158 8.60892 1.62087 8.12877 1.69818C7.28254 2.1374 7.2598 4.4112 7.51902 5.85051C7.56525 6.10555 7.4887 6.3678 7.3121 6.55804C7.13626 6.7479 6.87629 6.8415 6.62276 6.82028C3.89686 6.54553 2.25708 7.99091 1.70871 8.58361C1.8891 9.37451 2.58715 11.4312 5.09856 12.5533C5.33504 12.6594 5.50822 12.8708 5.56696 13.1236C5.62495 13.3768 5.56014 13.642 5.39378 13.8406C4.45432 14.9605 3.34281 16.9462 3.86048 17.747C4.22808 18.0449 6.36696 19.5986 9.34487 18.1131C9.46122 18.0536 9.58741 18.0255 9.71323 18.0255Z" fill="#192E3A"/>
<path d="M10.6231 33.8601C7.79033 33.8601 5.48584 31.556 5.48584 28.7232C5.48584 25.8904 7.79033 23.5859 10.6231 23.5859C13.4559 23.5859 15.76 25.8904 15.76 28.7232C15.76 31.556 13.4555 33.8601 10.6231 33.8601ZM10.6231 25.2401C8.70212 25.2401 7.13965 26.8026 7.13965 28.7236C7.13965 30.6442 8.70212 32.207 10.6231 32.207C12.5437 32.207 14.1066 30.6442 14.1066 28.7236C14.1066 26.8026 12.5437 25.2401 10.6231 25.2401Z" fill="#192E3A"/>
<path d="M19.6352 33.8601C16.8028 33.8601 14.4976 31.556 14.4976 28.7232C14.4976 25.8904 16.802 23.5859 19.6352 23.5859C22.4676 23.5859 24.7721 25.8904 24.7721 28.7232C24.7721 31.556 22.4672 33.8601 19.6352 33.8601ZM19.6352 25.2401C17.7138 25.2401 16.1517 26.8026 16.1517 28.7236C16.1517 30.6442 17.7138 32.207 19.6352 32.207C21.5562 32.207 23.1183 30.6442 23.1183 28.7236C23.1183 26.8026 21.5562 25.2401 19.6352 25.2401Z" fill="#192E3A"/>
<path d="M15.325 41.3044C12.4922 41.3044 10.1877 38.9999 10.1877 36.1675C10.1877 33.3351 12.4922 31.0303 15.325 31.0303C18.1574 31.0303 20.4619 33.3351 20.4619 36.1675C20.4619 38.9999 18.1574 41.3044 15.325 41.3044V41.3044ZM15.325 32.6845C13.404 32.6845 11.8412 34.2466 11.8412 36.1679C11.8412 38.0889 13.404 39.651 15.325 39.651C17.2456 39.651 18.8085 38.0889 18.8085 36.1679C18.8085 34.2466 17.2456 32.6845 15.325 32.6845Z" fill="#192E3A"/>
<path d="M24.3367 41.3044C21.504 41.3044 19.1995 38.9999 19.1995 36.1675C19.1995 33.3351 21.504 31.0303 24.3367 31.0303C27.1699 31.0303 29.4744 33.3351 29.4744 36.1675C29.4744 38.9999 27.1699 41.3044 24.3367 41.3044V41.3044ZM24.3367 32.6845C22.4157 32.6845 20.8536 34.2466 20.8536 36.1679C20.8536 38.0889 22.4157 39.651 24.3367 39.651C26.2577 39.651 27.8206 38.0889 27.8206 36.1679C27.8206 34.2466 26.2577 32.6845 24.3367 32.6845V32.6845Z" fill="#192E3A"/>
<path d="M20.0265 48.7501C17.1941 48.7501 14.8896 46.4456 14.8896 43.6128C14.8896 40.7793 17.1941 38.4756 20.0265 38.4756C22.8593 38.4756 25.1638 40.7793 25.1638 43.6128C25.1638 46.4456 22.8593 48.7501 20.0265 48.7501ZM20.0265 40.129C18.1059 40.129 16.5431 41.6922 16.5431 43.6128C16.5431 45.5338 18.1059 47.0963 20.0265 47.0963C21.9475 47.0963 23.5104 45.5338 23.5104 43.6128C23.5104 41.6922 21.9475 40.129 20.0265 40.129Z" fill="#192E3A"/>
<path d="M28.6475 33.8601C25.814 33.8601 23.5103 31.556 23.5103 28.7232C23.5103 25.8904 25.814 23.5859 28.6475 23.5859C31.4799 23.5859 33.7848 25.8904 33.7848 28.7232C33.7848 31.556 31.4799 33.8601 28.6475 33.8601ZM28.6475 25.2401C26.7269 25.2401 25.1637 26.8026 25.1637 28.7236C25.1637 30.6442 26.7269 32.207 28.6475 32.207C30.5685 32.207 32.131 30.6442 32.131 28.7236C32.131 26.8026 30.5685 25.2401 28.6475 25.2401Z" fill="#192E3A"/>
<path d="M19.6341 25.2384C19.2119 25.2384 18.8519 24.9182 18.8114 24.49C18.7992 24.3569 17.7287 11.1432 32.0566 9.09636C32.5095 9.03156 32.9282 9.34572 32.9926 9.7982C33.0567 10.2503 32.7433 10.6691 32.2908 10.7339C19.542 12.5544 20.4148 23.8559 20.4583 24.3369C20.4997 24.7912 20.1646 25.1937 19.711 25.2358C19.6849 25.238 19.6595 25.2384 19.6341 25.2384V25.2384Z" fill="#192E3A"/>
<path d="M19.6354 24.4079C19.1783 24.4079 18.8085 24.0381 18.8085 23.581V20.2787C18.8085 15.4515 14.8816 11.525 10.0547 11.525H9.05615C8.59912 11.525 8.22925 11.1551 8.22925 10.6981C8.22925 10.2411 8.59912 9.87158 9.05615 9.87158H10.0547C15.7934 9.87158 20.4619 14.5404 20.4619 20.2787V23.581C20.4619 24.0381 20.0924 24.4079 19.6354 24.4079Z" fill="#192E3A"/>
<path d="M25.5672 22.1562C25.1867 22.1562 24.8016 22.06 24.4492 21.8584C23.3695 21.2403 22.9936 19.8582 23.6117 18.7781L24.218 17.7189C23.2407 17.4908 22.1963 17.9175 21.6763 18.8281L20.6372 20.6423C20.4087 21.0383 19.905 21.1755 19.5083 20.9492C19.1119 20.7211 18.9747 20.2167 19.2013 19.8203L20.2408 18.0058C21.2178 16.3001 23.271 15.5906 25.0609 16.2474L26.4536 13.8133C26.6798 13.418 27.1838 13.279 27.5825 13.5063C27.9789 13.7333 28.1161 14.2385 27.8891 14.6349L26.5233 17.0205L27.0474 17.3199C28.1271 17.9383 28.5022 19.3197 27.8841 20.3997L27.5298 21.0201C27.1137 21.7477 26.3505 22.1562 25.5672 22.1562V22.1562ZM25.7017 18.4549L25.0472 19.5997C24.9661 19.7396 24.9464 19.9018 24.9885 20.0579C25.0302 20.2136 25.131 20.3425 25.2708 20.4225C25.5603 20.5892 25.9291 20.4888 26.0939 20.1992L26.449 19.5789C26.6146 19.2901 26.5142 18.9199 26.225 18.7554L25.7017 18.4549Z" fill="#192E3A"/>
</svg>
