<svg width="80" height="80" viewBox="0 0 80 80" fill="none" xmlns="http://www.w3.org/2000/svg">
<rect x="0.000488281" width="80" height="80" rx="40" fill="#F9FAFB"/>
<path d="M26.0005 40L29.1116 36.8889M29.1116 36.8889L40.0005 26L50.8894 36.8889M29.1116 36.8889V52.4444C29.1116 52.857 29.2755 53.2527 29.5672 53.5444C29.8589 53.8361 30.2546 54 30.6672 54H35.3338M50.8894 36.8889L54.0005 40M50.8894 36.8889V52.4444C50.8894 52.857 50.7255 53.2527 50.4338 53.5444C50.142 53.8361 49.7464 54 49.3338 54H44.6672M35.3338 54C35.7464 54 36.142 53.8361 36.4338 53.5444C36.7255 53.2527 36.8894 52.857 36.8894 52.4444V46.2222C36.8894 45.8097 37.0533 45.414 37.345 45.1223C37.6367 44.8306 38.0324 44.6667 38.4449 44.6667H41.556C41.9686 44.6667 42.3643 44.8306 42.656 45.1223C42.9477 45.414 43.1116 45.8097 43.1116 46.2222V52.4444C43.1116 52.857 43.2755 53.2527 43.5672 53.5444C43.8589 53.8361 44.2546 54 44.6672 54M35.3338 54H44.6672" stroke="#1C4D68" stroke-width="2" stroke-linecap="round" stroke-linejoin="round"/>
</svg>
