<svg width="80" height="80" viewBox="0 0 80 80" fill="none" xmlns="http://www.w3.org/2000/svg">
<rect x="0.000488281" width="80" height="80" rx="40" fill="#F9FAFB"/>
<path d="M32.8289 52.8284C33.5791 52.0783 34.0005 51.0609 34.0005 50C34.0005 48.9391 33.5791 47.9217 32.8289 47.1716C32.0788 46.4214 31.0614 46 30.0005 46C28.9396 46 27.9222 46.4214 27.1721 47.1716C26.4219 47.9217 26.0005 48.9391 26.0005 50C26.0005 51.0609 26.4219 52.0783 27.1721 52.8284C27.9222 53.5786 28.9396 54 30.0005 54C31.0614 54 32.0788 53.5786 32.8289 52.8284Z" stroke="#666666"/>
<path d="M52.8289 52.8284C53.5791 52.0783 54.0005 51.0609 54.0005 50C54.0005 48.9391 53.5791 47.9217 52.8289 47.1716C52.0788 46.4214 51.0614 46 50.0005 46C48.9396 46 47.9222 46.4214 47.1721 47.1716C46.4219 47.9217 46.0005 48.9391 46.0005 50C46.0005 51.0609 46.4219 52.0783 47.1721 52.8284C47.9222 53.5786 48.9396 54 50.0005 54C51.0614 54 52.0788 53.5786 52.8289 52.8284Z" stroke="#666666"/>
<path d="M42.0005 48V28C42.0005 27.4696 41.7898 26.9609 41.4147 26.5858C41.0396 26.2107 40.5309 26 40.0005 26H24.0005C23.4701 26 22.9613 26.2107 22.5863 26.5858C22.2112 26.9609 22.0005 27.4696 22.0005 28V48C22.0005 48.5304 22.2112 49.0391 22.5863 49.4142C22.9613 49.7893 23.4701 50 24.0005 50H26.0005M42.0005 48C42.0005 48.5304 41.7898 49.0391 41.4147 49.4142C41.0396 49.7893 40.5309 50 40.0005 50H34.0005M42.0005 48V32C42.0005 31.4696 42.2112 30.9609 42.5863 30.5858C42.9613 30.2107 43.4701 30 44.0005 30H49.1725C49.7029 30.0001 50.2115 30.2109 50.5865 30.586L57.4145 37.414C57.7896 37.789 58.0004 38.2976 58.0005 38.828V48C58.0005 48.5304 57.7898 49.0391 57.4147 49.4142C57.0396 49.7893 56.5309 50 56.0005 50H54.0005M42.0005 48C42.0005 48.5304 42.2112 49.0391 42.5863 49.4142C42.9613 49.7893 43.4701 50 44.0005 50H46.0005M26.0005 50C26.0005 51.0609 26.4219 52.0783 27.1721 52.8284C27.9222 53.5786 28.9396 54 30.0005 54C31.0614 54 32.0788 53.5786 32.8289 52.8284C33.5791 52.0783 34.0005 51.0609 34.0005 50M26.0005 50C26.0005 48.9391 26.4219 47.9217 27.1721 47.1716C27.9222 46.4214 28.9396 46 30.0005 46C31.0614 46 32.0788 46.4214 32.8289 47.1716C33.5791 47.9217 34.0005 48.9391 34.0005 50M54.0005 50C54.0005 51.0609 53.5791 52.0783 52.8289 52.8284C52.0788 53.5786 51.0614 54 50.0005 54C48.9396 54 47.9222 53.5786 47.1721 52.8284C46.4219 52.0783 46.0005 51.0609 46.0005 50M54.0005 50C54.0005 48.9391 53.5791 47.9217 52.8289 47.1716C52.0788 46.4214 51.0614 46 50.0005 46C48.9396 46 47.9222 46.4214 47.1721 47.1716C46.4219 47.9217 46.0005 48.9391 46.0005 50" stroke="#B71F39" stroke-width="2" stroke-linecap="round" stroke-linejoin="round"/>
</svg>
