<svg width="80" height="80" viewBox="0 0 80 80" fill="none" xmlns="http://www.w3.org/2000/svg">
<rect x="0.000488281" width="80" height="80" rx="40" fill="#F9FAFB"/>
<path d="M26.0005 26.0033V34.7523H27.019M27.019 34.7523C28.1807 31.8793 30.2629 29.473 32.9393 27.9103C35.6156 26.3477 38.7349 25.717 41.8082 26.1173C44.8815 26.5175 47.7351 27.926 49.9219 30.1219C52.1087 32.3179 53.505 35.1772 53.892 38.2519M27.019 34.7523H34.7505M54.0005 54V45.251H52.9837M52.9837 45.251C51.8203 48.1223 49.7375 50.5267 47.0614 52.088C44.3854 53.6492 41.267 54.2791 38.1947 53.879C35.1223 53.479 32.2693 52.0715 30.0824 49.877C27.8955 47.6825 26.4981 44.8249 26.109 41.7514M52.9837 45.251H45.2505" stroke="#652057" stroke-width="2" stroke-linecap="round" stroke-linejoin="round"/>
</svg>
