<svg width="60" height="67" viewBox="0 0 60 67" fill="none" xmlns="http://www.w3.org/2000/svg">
<path d="M30.7433 53.9147C31.0771 54.0447 31.3747 54.2572 31.7019 54.4028L54.3738 64.4953C57.0192 65.6729 60.0005 63.7366 60.0005 60.841V4C60.0005 1.79086 58.2096 0 56.0005 0H4.00049C1.79135 0 0.000488281 1.79086 0.000488281 4V60.841C0.000488281 63.7366 2.98181 65.6729 5.6272 64.4953L28.2972 54.4037C28.6257 54.2575 28.9243 54.0439 29.2595 53.9138C29.4877 53.8253 29.741 53.7778 30.0005 53.7778C30.2608 53.7778 30.5147 53.8256 30.7433 53.9147Z" fill="#B71F39"/>
<rect width="60" height="26" fill="#B71F39"/>
</svg>
